<svg width="52" height="79" viewBox="0 0 52 79" fill="none" xmlns="http://www.w3.org/2000/svg">
<path d="M25.228 33.006V58.976C25.228 62.58 24.1857 65.389 22.101 67.403C20.0163 69.3817 17.225 70.371 13.727 70.371C10.1937 70.371 7.33167 69.3463 5.141 67.297C2.98567 65.2477 1.908 62.3857 1.908 58.711H9.328C9.36333 60.301 9.73433 61.5377 10.441 62.421C11.183 63.3043 12.243 63.746 13.621 63.746C14.9637 63.746 15.9883 63.322 16.695 62.474C17.4017 61.626 17.755 60.46 17.755 58.976V33.006H25.228Z" fill="url(#paint0_linear_47_22)"/>
<path d="M40.856 38.616H27.512L25.304 45H18.248L30.296 11.448H38.12L50.168 45H43.064L40.856 38.616ZM39.032 33.24L34.184 19.224L29.336 33.24H39.032Z" fill="url(#paint1_linear_47_22)"/>
<defs>
<linearGradient id="paint0_linear_47_22" x1="-1.39486e-06" y1="59.2814" x2="27.9491" y2="41.1028" gradientUnits="userSpaceOnUse">
<stop stop-color="#4CA5FF"/>
<stop offset="0.43914" stop-color="white"/>
</linearGradient>
<linearGradient id="paint1_linear_47_22" x1="17" y1="38.2414" x2="52.4906" y2="18.6473" gradientUnits="userSpaceOnUse">
<stop offset="0.373099" stop-color="white"/>
<stop offset="1" stop-color="#B573F8"/>
</linearGradient>
</defs>
</svg>
