<svg width="53" height="80" viewBox="0 0 53 80" fill="none" xmlns="http://www.w3.org/2000/svg">
<path d="M22.32 27.816C24.208 28.168 25.76 29.112 26.976 30.648C28.192 32.184 28.8 33.944 28.8 35.928C28.8 37.72 28.352 39.304 27.456 40.68C26.592 42.024 25.328 43.08 23.664 43.848C22 44.616 20.032 45 17.76 45H3.312V11.496H17.136C19.408 11.496 21.36 11.864 22.992 12.6C24.656 13.336 25.904 14.36 26.736 15.672C27.6 16.984 28.032 18.472 28.032 20.136C28.032 22.088 27.504 23.72 26.448 25.032C25.424 26.344 24.048 27.272 22.32 27.816ZM10.032 25.32H16.176C17.776 25.32 19.008 24.968 19.872 24.264C20.736 23.528 21.168 22.488 21.168 21.144C21.168 19.8 20.736 18.76 19.872 18.024C19.008 17.288 17.776 16.92 16.176 16.92H10.032V25.32ZM16.8 39.528C18.432 39.528 19.696 39.144 20.592 38.376C21.52 37.608 21.984 36.52 21.984 35.112C21.984 33.672 21.504 32.552 20.544 31.752C19.584 30.92 18.288 30.504 16.656 30.504H10.032V39.528H16.8Z" fill="url(#paint0_linear_47_22)"/>
<path d="M28.936 35.496V56.232C28.936 58.504 29.528 60.248 30.712 61.464C31.896 62.648 33.56 63.24 35.704 63.24C37.88 63.24 39.56 62.648 40.744 61.464C41.928 60.248 42.52 58.504 42.52 56.232V35.496H49.288V56.184C49.288 59.032 48.664 61.448 47.416 63.432C46.2 65.384 44.552 66.856 42.472 67.848C40.424 68.84 38.136 69.336 35.608 69.336C33.112 69.336 30.84 68.84 28.792 67.848C26.776 66.856 25.176 65.384 23.992 63.432C22.808 61.448 22.216 59.032 22.216 56.184V35.496H28.936Z" fill="url(#paint1_linear_47_22)"/>
<defs>
<linearGradient id="paint0_linear_47_22" x1="-2.66997e-07" y1="19.0472" x2="31" y2="36.9528" gradientUnits="userSpaceOnUse">
<stop stop-color="#585858"/>
<stop offset="0.450342" stop-color="white"/>
</linearGradient>
<linearGradient id="paint1_linear_47_22" x1="19" y1="42.2383" x2="53" y2="61.7617" gradientUnits="userSpaceOnUse">
<stop offset="0.503007" stop-color="white"/>
<stop offset="1" stop-color="#8B3B7A"/>
</linearGradient>
</defs>
</svg>
